<svg width="371" height="109" viewBox="0 0 371 109" fill="none" xmlns="http://www.w3.org/2000/svg">
<path opacity="0.2" fill-rule="evenodd" clip-rule="evenodd" d="M312.961 94.8632C315.308 94.8635 317.61 94.216 319.612 92.9919C321.615 91.7679 323.241 90.0147 324.312 87.9257C325.382 85.8366 325.855 83.4927 325.678 81.1521C325.501 78.8115 324.682 76.565 323.311 74.6602C323.774 74.7002 324.24 74.6384 324.677 74.4791C325.114 74.3197 325.511 74.0667 325.84 73.7378L333.151 66.4269L357.464 90.7401C357.756 91.0533 358.108 91.3045 358.499 91.4788C358.89 91.653 359.312 91.7467 359.74 91.7543C360.168 91.7618 360.593 91.6831 360.99 91.5227C361.387 91.3624 361.748 91.1237 362.05 90.821C362.353 90.5183 362.592 90.1577 362.752 89.7608C362.913 89.3638 362.991 88.9386 362.984 88.5106C362.976 88.0826 362.882 87.6604 362.708 87.2694C362.534 86.8783 362.283 86.5264 361.97 86.2345L337.656 61.9213L361.97 37.608C362.533 37.0037 362.839 36.2044 362.825 35.3785C362.81 34.5526 362.476 33.7646 361.891 33.1806C361.307 32.5965 360.519 32.2619 359.693 32.2473C358.868 32.2328 358.068 32.5393 357.464 33.1024L333.151 57.4157L325.84 50.1047C325.466 49.7279 325.005 49.4503 324.497 49.2971C325.832 46.4723 326.083 43.2556 325.203 40.2576C324.323 37.2597 322.374 34.689 319.724 33.0336C317.074 31.3782 313.909 30.7533 310.828 31.2774C307.748 31.8015 304.968 33.4382 303.015 35.8769C301.061 38.3156 300.072 41.3864 300.233 44.5067C300.394 47.6269 301.695 50.5793 303.89 52.8036C306.084 55.0279 309.018 56.3692 312.136 56.573C315.254 56.7767 318.338 55.8287 320.803 53.909C320.949 54.1648 321.127 54.4005 321.334 54.6103L328.645 61.9213L321.334 69.2322C321.005 69.561 320.752 69.9578 320.593 70.3947C320.434 70.8316 320.372 71.298 320.412 71.7613C318.78 70.5874 316.895 69.8156 314.909 69.509C312.922 69.2024 310.892 69.3697 308.982 69.9971C307.073 70.6245 305.339 71.6944 303.922 73.1194C302.504 74.5445 301.444 76.2843 300.827 78.1971C300.21 80.1099 300.054 82.1414 300.372 84.1259C300.689 86.1105 301.471 87.9919 302.654 89.6167C303.837 91.2416 305.387 92.5638 307.178 93.4755C308.969 94.3873 310.951 94.8627 312.961 94.8632Z" fill="url(#paint0_linear_678_2517)"/>
<path fill-rule="evenodd" clip-rule="evenodd" d="M308.705 48.1079C310.38 48.1079 312.038 47.7781 313.585 47.1372C315.132 46.4964 316.538 45.5571 317.722 44.373C318.906 43.1889 319.845 41.7832 320.486 40.236C321.127 38.6889 321.457 37.0308 321.457 35.3562C321.457 33.6816 321.127 32.0234 320.486 30.4763C319.845 28.9292 318.906 27.5235 317.722 26.3394C316.538 25.1553 315.132 24.216 313.585 23.5752C312.038 22.9343 310.38 22.6045 308.705 22.6045C305.323 22.6045 302.08 23.948 299.688 26.3394C297.297 28.7308 295.953 31.9742 295.953 35.3562C295.953 38.7381 297.297 41.9816 299.688 44.373C302.08 46.7644 305.323 48.1079 308.705 48.1079ZM308.705 26.8551C310.96 26.8551 313.122 27.7507 314.716 29.345C316.311 30.9393 317.206 33.1015 317.206 35.3562C317.206 37.6108 316.311 39.7731 314.716 41.3674C313.122 42.9617 310.96 43.8573 308.705 43.8573C306.45 43.8573 304.288 42.9617 302.694 41.3674C301.1 39.7731 300.204 37.6108 300.204 35.3562C300.204 33.1015 301.1 30.9393 302.694 29.345C304.288 27.7507 306.45 26.8551 308.705 26.8551ZM308.705 90.6135C312.087 90.6135 315.33 89.2701 317.722 86.8786C320.113 84.4872 321.457 81.2438 321.457 77.8618C321.457 74.4799 320.113 71.2364 317.722 68.845C315.33 66.4536 312.087 65.1101 308.705 65.1101C305.323 65.1101 302.08 66.4536 299.688 68.845C297.297 71.2364 295.953 74.4799 295.953 77.8618C295.953 81.2438 297.297 84.4872 299.688 86.8786C302.08 89.2701 305.323 90.6135 308.705 90.6135ZM308.705 69.3607C310.96 69.3607 313.122 70.2564 314.716 71.8506C316.311 73.4449 317.206 75.6072 317.206 77.8618C317.206 80.1165 316.311 82.2788 314.716 83.873C313.122 85.4673 310.96 86.363 308.705 86.363C306.45 86.363 304.288 85.4673 302.694 83.873C301.1 82.2788 300.204 80.1165 300.204 77.8618C300.204 75.6072 301.1 73.4449 302.694 71.8506C304.288 70.2564 306.45 69.3607 308.705 69.3607Z" fill="url(#paint1_linear_678_2517)"/>
<path d="M357.499 79.0572C357.904 79.4501 358.136 79.9876 358.144 80.5516C358.152 81.1156 357.936 81.6598 357.544 82.0645C357.151 82.4692 356.613 82.7012 356.049 82.7096C355.485 82.718 354.941 82.502 354.536 82.1091L316.808 45.4395C316.605 45.2457 316.442 45.0136 316.329 44.7564C316.216 44.4993 316.155 44.2223 316.149 43.9415C316.144 43.6606 316.194 43.3815 316.297 43.1202C316.401 42.8589 316.555 42.6207 316.75 42.4193C316.946 42.2179 317.18 42.0573 317.438 41.9468C317.696 41.8362 317.974 41.778 318.255 41.7755C318.536 41.7729 318.814 41.8261 319.075 41.9319C319.335 42.0377 319.571 42.194 319.771 42.3918L357.499 79.0572Z" fill="url(#paint2_linear_678_2517)"/>
<path d="M315.705 67.8559C315.508 68.0535 315.351 68.2881 315.244 68.5463C315.137 68.8044 315.082 69.0811 315.082 69.3606C315.082 69.64 315.137 69.9168 315.244 70.1749C315.351 70.4331 315.508 70.6677 315.705 70.8653C316.104 71.2644 316.646 71.4886 317.21 71.4886C317.489 71.4886 317.766 71.4335 318.024 71.3266C318.283 71.2196 318.517 71.0629 318.715 70.8653L356.97 32.6102C357.369 32.2111 357.593 31.6699 357.593 31.1055C357.593 30.5411 357.369 29.9999 356.97 29.6008C356.571 29.2017 356.029 28.9775 355.465 28.9775C354.901 28.9775 354.359 29.2017 353.96 29.6008L315.705 67.8559Z" fill="url(#paint3_linear_678_2517)"/>
<path d="M290.22 19.9582C289.81 19.5479 289.58 18.9916 289.58 18.4116C289.581 17.8317 289.811 17.2757 290.222 16.8659C290.632 16.4562 291.188 16.2262 291.768 16.2266C292.348 16.227 292.904 16.4577 293.314 16.8681L365.45 89.0044C365.86 89.4142 366.09 89.97 366.09 90.5495C366.09 91.129 365.86 91.6848 365.45 92.0946C365.041 92.5043 364.485 92.7346 363.905 92.7346C363.326 92.7346 362.77 92.5043 362.36 92.0946L290.22 19.9582Z" fill="url(#paint4_linear_678_2517)"/>
<path d="M40.7127 24.9773C35.0865 22.8134 29.7694 21.7314 24.7615 21.7314C19.8154 21.7314 15.9512 22.7825 13.169 24.8846C10.3868 26.9867 8.99574 29.8925 8.99574 33.6021C8.99574 38.1154 11.3451 41.6086 16.044 44.0817C18.1461 45.1327 20.4336 46.122 22.9067 47.0494C25.4416 47.9149 27.9765 48.9041 30.5113 50.017C33.0462 51.1299 35.3647 52.3973 37.4668 53.8194C39.5689 55.2414 41.2691 57.2198 42.5675 59.7547C43.8658 62.2277 44.515 65.4118 44.515 69.3069C44.515 73.1401 43.4331 76.4169 41.2691 79.1373C39.1052 81.8576 36.4776 83.7124 33.3863 84.7016C30.3568 85.629 26.8018 86.0927 22.7212 86.0927C15.1166 86.0927 8.62479 84.207 3.24589 80.4356L3.70959 79.6937C5.74986 81.3012 8.37748 82.6305 11.5925 83.6815C14.8693 84.6707 18.2079 85.1653 21.6083 85.1653C26.6163 85.1653 30.8823 84.0216 34.4064 81.734C37.9923 79.3846 39.7853 75.9532 39.7853 71.4399C39.7853 66.4938 37.4359 62.6296 32.7371 59.8474C30.635 58.6109 28.3165 57.4671 25.7816 56.4161C23.3086 55.365 20.8046 54.283 18.2697 53.1702C15.7348 51.9955 13.4163 50.6971 11.3142 49.2751C6.61543 46.1838 4.26602 41.7941 4.26602 36.1061C4.26602 31.5928 5.78077 27.945 8.81026 25.1628C11.8398 22.3188 16.384 20.8968 22.443 20.8968C28.5638 20.8968 34.7774 21.9478 41.0837 24.0499L40.7127 24.9773ZM51.6234 86H50.5105L78.2396 21.0823L79.2598 20.6186L102.63 86H94.7473L87.5136 65.5973H60.4336L51.6234 86ZM75.3647 31.0981L60.8046 64.6699H87.2354L75.3647 31.0981ZM146.246 86H111.005V21.0823H118.702V85.0726H146.246V86ZM149.09 55.1177C149.09 43.8653 151.81 35.3332 157.251 29.5216C162.753 23.6481 169.802 20.7113 178.396 20.7113C186.989 20.7113 193.821 23.2462 198.891 28.316C204.023 33.3857 206.588 41.485 206.588 52.6137C206.588 63.7425 203.868 72.1509 198.427 77.8389C192.987 83.5269 185.722 86.371 176.633 86.371C168.782 86.371 162.352 84.1143 157.344 79.601C154.747 77.2516 152.707 74.0057 151.223 69.8633C149.801 65.6591 149.09 60.7439 149.09 55.1177ZM178.117 21.6387C171.873 21.6387 166.741 24.4209 162.723 29.9853C158.766 35.5496 156.787 43.7107 156.787 54.4685C156.787 65.2263 158.673 73.0783 162.444 78.0244C166.216 82.9705 171.224 85.4436 177.468 85.4436C183.774 85.4436 188.906 82.6614 192.863 77.097C196.882 71.4708 198.891 63.3406 198.891 52.7065C198.891 42.0105 196.974 34.1585 193.141 29.1506C189.37 24.1427 184.362 21.6387 178.117 21.6387ZM217.528 86H216.322V21.0823H219.476L258.055 81.0848V21.0823H259.261V86H252.491L217.528 32.211V86ZM271.76 22.0097V21.0823H288.267V22.0097H283.723V85.0726H288.267V86H271.76V85.0726H276.026V22.0097H271.76Z" fill="#FBE8E9"/>
<defs>
<linearGradient id="paint0_linear_678_2517" x1="356.853" y1="28.5139" x2="329.769" y2="109.529" gradientUnits="userSpaceOnUse">
<stop stop-color="white"/>
<stop offset="1" stop-color="#FFDEE0"/>
</linearGradient>
<linearGradient id="paint1_linear_678_2517" x1="318.966" y1="19.8499" x2="271.341" y2="74.1172" gradientUnits="userSpaceOnUse">
<stop stop-color="white"/>
<stop offset="1" stop-color="#AD686E"/>
</linearGradient>
<linearGradient id="paint2_linear_678_2517" x1="354.042" y1="40.1174" x2="337.226" y2="92.5421" gradientUnits="userSpaceOnUse">
<stop stop-color="white"/>
<stop offset="1" stop-color="#AD686E"/>
</linearGradient>
<linearGradient id="paint3_linear_678_2517" x1="353.441" y1="27.2557" x2="335.611" y2="81.4341" gradientUnits="userSpaceOnUse">
<stop stop-color="white"/>
<stop offset="1" stop-color="#AD686E"/>
</linearGradient>
<linearGradient id="paint4_linear_678_2517" x1="358.617" y1="13.1277" x2="326.529" y2="110.634" gradientUnits="userSpaceOnUse">
<stop stop-color="white"/>
<stop offset="1" stop-color="#AD686E"/>
</linearGradient>
</defs>
</svg>
