<svg width="155" height="46" viewBox="0 0 155 46" fill="none" xmlns="http://www.w3.org/2000/svg">
<path opacity="0.2" fill-rule="evenodd" clip-rule="evenodd" d="M130.629 39.5968C131.609 39.597 132.569 39.3267 133.405 38.8158C134.241 38.3048 134.92 37.5731 135.367 36.7011C135.814 35.8291 136.011 34.8507 135.937 33.8738C135.863 32.8968 135.522 31.9591 134.949 31.164C135.142 31.1808 135.337 31.155 135.519 31.0884C135.702 31.0219 135.867 30.9163 136.005 30.779L139.056 27.7274L149.205 37.8759C149.327 38.0066 149.473 38.1114 149.637 38.1842C149.8 38.2569 149.976 38.296 150.155 38.2992C150.333 38.3023 150.511 38.2694 150.677 38.2025C150.842 38.1356 150.993 38.036 151.119 37.9096C151.246 37.7833 151.345 37.6328 151.412 37.4671C151.479 37.3014 151.512 37.1239 151.509 36.9452C151.506 36.7666 151.466 36.5904 151.394 36.4271C151.321 36.2639 151.216 36.117 151.085 35.9952L140.937 25.8468L151.085 15.6983C151.32 15.4461 151.448 15.1125 151.442 14.7677C151.436 14.423 151.297 14.0941 151.053 13.8503C150.809 13.6065 150.48 13.4668 150.135 13.4608C149.791 13.4547 149.457 13.5826 149.205 13.8177L139.056 23.9661L136.005 20.9145C135.849 20.7572 135.656 20.6413 135.444 20.5774C136.001 19.3983 136.106 18.0557 135.739 16.8043C135.372 15.5529 134.558 14.4799 133.452 13.789C132.346 13.098 131.025 12.8371 129.739 13.0559C128.453 13.2747 127.293 13.9578 126.477 14.9757C125.662 15.9937 125.249 17.2754 125.316 18.5778C125.384 19.8802 125.927 21.1126 126.843 22.041C127.758 22.9694 128.983 23.5293 130.285 23.6144C131.586 23.6994 132.873 23.3037 133.902 22.5024C133.963 22.6092 134.038 22.7076 134.124 22.7951L137.176 25.8468L134.124 28.8984C133.987 29.0356 133.881 29.2012 133.815 29.3836C133.748 29.5659 133.722 29.7607 133.739 29.954C133.058 29.464 132.271 29.1419 131.442 29.0139C130.613 28.8859 129.765 28.9557 128.968 29.2176C128.171 29.4795 127.448 29.9261 126.856 30.5209C126.264 31.1157 125.822 31.842 125.564 32.6404C125.307 33.4388 125.242 34.2867 125.374 35.1151C125.507 35.9434 125.833 36.7287 126.327 37.407C126.821 38.0852 127.468 38.637 128.215 39.0176C128.963 39.3982 129.79 39.5966 130.629 39.5968Z" fill="url(#paint0_linear_492_1077)"/>
<path fill-rule="evenodd" clip-rule="evenodd" d="M128.855 20.0808C129.554 20.0808 130.246 19.9431 130.892 19.6756C131.537 19.4081 132.124 19.016 132.618 18.5218C133.113 18.0276 133.505 17.4408 133.772 16.795C134.04 16.1493 134.177 15.4571 134.177 14.7582C134.177 14.0592 134.04 13.367 133.772 12.7213C133.505 12.0755 133.113 11.4888 132.618 10.9945C132.124 10.5003 131.537 10.1082 130.892 9.84071C130.246 9.57322 129.554 9.43555 128.855 9.43555C127.443 9.43555 126.089 9.99632 125.091 10.9945C124.093 11.9927 123.532 13.3465 123.532 14.7582C123.532 16.1698 124.093 17.5236 125.091 18.5218C126.089 19.52 127.443 20.0808 128.855 20.0808ZM128.855 11.2097C129.796 11.2097 130.698 11.5836 131.364 12.2491C132.029 12.9145 132.403 13.8171 132.403 14.7582C132.403 15.6992 132.029 16.6018 131.364 17.2673C130.698 17.9327 129.796 18.3066 128.855 18.3066C127.914 18.3066 127.011 17.9327 126.346 17.2673C125.68 16.6018 125.306 15.6992 125.306 14.7582C125.306 13.8171 125.68 12.9145 126.346 12.2491C127.011 11.5836 127.914 11.2097 128.855 11.2097ZM128.855 37.8228C130.266 37.8228 131.62 37.262 132.618 36.2638C133.617 35.2656 134.177 33.9118 134.177 32.5002C134.177 31.0885 133.617 29.7347 132.618 28.7365C131.62 27.7383 130.266 27.1776 128.855 27.1776C127.443 27.1776 126.089 27.7383 125.091 28.7365C124.093 29.7347 123.532 31.0885 123.532 32.5002C123.532 33.9118 124.093 35.2656 125.091 36.2638C126.089 37.262 127.443 37.8228 128.855 37.8228ZM128.855 28.9518C129.796 28.9518 130.698 29.3256 131.364 29.9911C132.029 30.6565 132.403 31.5591 132.403 32.5002C132.403 33.4413 132.029 34.3438 131.364 35.0093C130.698 35.6747 129.796 36.0486 128.855 36.0486C127.914 36.0486 127.011 35.6747 126.346 35.0093C125.68 34.3438 125.306 33.4413 125.306 32.5002C125.306 31.5591 125.68 30.6565 126.346 29.9911C127.011 29.3256 127.914 28.9518 128.855 28.9518Z" fill="url(#paint1_linear_492_1077)"/>
<path d="M149.219 33.0005C149.388 33.1645 149.485 33.3889 149.488 33.6243C149.492 33.8597 149.401 34.0868 149.238 34.2558C149.074 34.4247 148.849 34.5216 148.614 34.5251C148.378 34.5285 148.151 34.4384 147.982 34.2744L132.234 18.9684C132.15 18.8875 132.082 18.7906 132.034 18.6833C131.987 18.5759 131.962 18.4603 131.959 18.3431C131.957 18.2259 131.978 18.1094 132.021 18.0003C132.064 17.8912 132.129 17.7918 132.21 17.7077C132.292 17.6237 132.39 17.5566 132.497 17.5105C132.605 17.4644 132.721 17.4401 132.838 17.439C132.956 17.4379 133.072 17.4601 133.18 17.5043C133.289 17.5484 133.388 17.6137 133.471 17.6963L149.219 33.0005Z" fill="url(#paint2_linear_492_1077)"/>
<path d="M131.775 28.3237C131.693 28.4061 131.627 28.5041 131.583 28.6118C131.538 28.7196 131.515 28.8351 131.515 28.9517C131.515 29.0684 131.538 29.1839 131.583 29.2916C131.627 29.3994 131.693 29.4973 131.775 29.5798C131.942 29.7464 132.168 29.84 132.403 29.84C132.52 29.84 132.635 29.817 132.743 29.7723C132.851 29.7277 132.949 29.6623 133.031 29.5798L148.999 13.612C149.166 13.4454 149.259 13.2195 149.259 12.9839C149.259 12.7484 149.166 12.5224 148.999 12.3559C148.832 12.1893 148.606 12.0957 148.371 12.0957C148.135 12.0957 147.909 12.1893 147.743 12.3559L131.775 28.3237Z" fill="url(#paint3_linear_492_1077)"/>
<path d="M121.137 8.33202C120.966 8.16074 120.87 7.92853 120.87 7.68647C120.87 7.44441 120.966 7.21233 121.138 7.04129C121.309 6.87025 121.541 6.77425 121.783 6.77441C122.025 6.77458 122.257 6.8709 122.428 7.04218L152.538 37.1521C152.71 37.3232 152.806 37.5552 152.806 37.7971C152.806 38.039 152.71 38.2709 152.538 38.442C152.367 38.613 152.135 38.7091 151.894 38.7091C151.652 38.7091 151.42 38.613 151.249 38.442L121.137 8.33202Z" fill="url(#paint4_linear_492_1077)"/>
<path d="M16.9936 10.5289C14.6452 9.62568 12.4259 9.17407 10.3355 9.17407C8.27101 9.17407 6.6581 9.61278 5.4968 10.4902C4.3355 11.3676 3.75486 12.5805 3.75486 14.1289C3.75486 16.0128 4.73551 17.4709 6.69681 18.5031C7.57423 18.9419 8.52907 19.3548 9.56133 19.7419C10.6194 20.1032 11.6775 20.5161 12.7355 20.9806C13.7936 21.4451 14.7614 21.9741 15.6388 22.5677C16.5162 23.1612 17.2259 23.987 17.7678 25.0451C18.3098 26.0774 18.5807 27.4064 18.5807 29.0322C18.5807 30.6322 18.1291 32 17.2259 33.1355C16.3227 34.271 15.2259 35.0452 13.9355 35.4581C12.671 35.8452 11.1871 36.0387 9.48391 36.0387C6.30971 36.0387 3.60002 35.2516 1.35484 33.6774L1.54839 33.3677C2.40001 34.0387 3.49679 34.5935 4.83873 35.0323C6.20648 35.4452 7.60003 35.6516 9.0194 35.6516C11.1097 35.6516 12.8904 35.1742 14.3614 34.2193C15.8581 33.2387 16.6065 31.8064 16.6065 29.9226C16.6065 27.858 15.6259 26.2451 13.6646 25.0838C12.7872 24.5677 11.8194 24.0903 10.7613 23.6516C9.72908 23.2128 8.68391 22.7612 7.62584 22.2967C6.56777 21.8064 5.60003 21.2644 4.7226 20.6709C2.7613 19.3806 1.78065 17.5483 1.78065 15.1741C1.78065 13.2902 2.41291 11.7676 3.67744 10.6063C4.94196 9.41923 6.83874 8.82568 9.36779 8.82568C11.9226 8.82568 14.5162 9.26439 17.1485 10.1418L16.9936 10.5289ZM21.5478 36H21.0833L32.6575 8.9031L33.0833 8.70955L42.8382 36H39.5479L36.5285 27.4838H25.2252L21.5478 36ZM31.4575 13.0838L25.3801 27.0967H36.4124L31.4575 13.0838ZM61.0436 36H46.3339V8.9031H49.5468V35.6129H61.0436V36ZM62.2306 23.1096C62.2306 18.4128 63.3661 14.8515 65.6371 12.4257C67.9339 9.97407 70.8758 8.74826 74.4629 8.74826C78.0501 8.74826 80.9017 9.80633 83.0178 11.9225C85.1598 14.0386 86.2307 17.4193 86.2307 22.0645C86.2307 26.7096 85.0952 30.2193 82.8243 32.5935C80.5533 34.9677 77.521 36.1548 73.7275 36.1548C70.45 36.1548 67.7661 35.2129 65.6758 33.329C64.5919 32.3484 63.7403 30.9935 63.121 29.2645C62.5274 27.5096 62.2306 25.458 62.2306 23.1096ZM74.3468 9.13536C71.7403 9.13536 69.5984 10.2967 67.921 12.6192C66.2694 14.9418 65.4435 18.3483 65.4435 22.8386C65.4435 27.329 66.2306 30.6064 67.8048 32.671C69.379 34.7355 71.4694 35.7677 74.0758 35.7677C76.7081 35.7677 78.8501 34.6064 80.5017 32.2839C82.1791 29.9355 83.0178 26.5419 83.0178 22.1032C83.0178 17.6386 82.2178 14.3612 80.6178 12.2709C79.0436 10.1805 76.9533 9.13536 74.3468 9.13536ZM90.797 36H90.2938V8.9031H91.6099L107.713 33.9484V8.9031H108.216V36H105.391L90.797 13.5483V36ZM113.433 9.2902V8.9031H120.324V9.2902H118.427V35.6129H120.324V36H113.433V35.6129H115.214V9.2902H113.433Z" fill="#FBE8E9"/>
<defs>
<linearGradient id="paint0_linear_492_1077" x1="148.95" y1="11.9024" x2="137.645" y2="45.7183" gradientUnits="userSpaceOnUse">
<stop stop-color="white"/>
<stop offset="1" stop-color="#FFDEE0"/>
</linearGradient>
<linearGradient id="paint1_linear_492_1077" x1="133.138" y1="8.28578" x2="113.259" y2="30.9371" gradientUnits="userSpaceOnUse">
<stop stop-color="white"/>
<stop offset="1" stop-color="#AD686E"/>
</linearGradient>
<linearGradient id="paint2_linear_492_1077" x1="147.776" y1="16.7469" x2="140.757" y2="38.6292" gradientUnits="userSpaceOnUse">
<stop stop-color="white"/>
<stop offset="1" stop-color="#AD686E"/>
</linearGradient>
<linearGradient id="paint3_linear_492_1077" x1="147.526" y1="11.377" x2="140.084" y2="33.9913" gradientUnits="userSpaceOnUse">
<stop stop-color="white"/>
<stop offset="1" stop-color="#AD686E"/>
</linearGradient>
<linearGradient id="paint4_linear_492_1077" x1="149.686" y1="5.48096" x2="136.293" y2="46.1806" gradientUnits="userSpaceOnUse">
<stop stop-color="white"/>
<stop offset="1" stop-color="#AD686E"/>
</linearGradient>
</defs>
</svg>
