<svg width="63" height="64" viewBox="0 0 63 64" fill="none" xmlns="http://www.w3.org/2000/svg">
<path opacity="0.2" fill-rule="evenodd" clip-rule="evenodd" d="M12.9605 63.8632C15.3078 63.8635 17.6096 63.216 19.6124 61.9919C21.6152 60.7679 23.2413 59.0147 24.3115 56.9257C25.3818 54.8366 25.8546 52.4927 25.678 50.1521C25.5014 47.8115 24.6822 45.565 23.3107 43.6602C23.774 43.7002 24.2404 43.6384 24.6773 43.4791C25.1142 43.3197 25.511 43.0667 25.8397 42.7378L33.1507 35.4269L57.464 59.7401C57.7558 60.0533 58.1078 60.3045 58.4988 60.4788C58.8899 60.653 59.312 60.7467 59.74 60.7543C60.1681 60.7618 60.5933 60.6831 60.9902 60.5227C61.3872 60.3624 61.7478 60.1237 62.0505 59.821C62.3532 59.5183 62.5918 59.1577 62.7522 58.7608C62.9125 58.3638 62.9913 57.9386 62.9837 57.5106C62.9762 57.0826 62.8825 56.6604 62.7082 56.2694C62.534 55.8783 62.2828 55.5264 61.9696 55.2345L37.6563 30.9213L61.9696 6.60804C62.5327 6.00372 62.8392 5.20441 62.8247 4.37852C62.8101 3.55263 62.4755 2.76464 61.8914 2.18056C61.3074 1.59648 60.5194 1.26191 59.6935 1.24733C58.8676 1.23276 58.0683 1.53933 57.464 2.10244L33.1507 26.4157L25.8397 19.1047C25.4662 18.7279 25.0045 18.4503 24.4966 18.2971C25.8316 15.4723 26.0831 12.2556 25.2033 9.25765C24.3235 6.25967 22.3736 3.68904 19.7238 2.03364C17.074 0.378236 13.9086 -0.246709 10.8285 0.277412C7.74835 0.801533 4.96783 2.43824 3.01466 4.8769C1.06149 7.31555 0.0716038 10.3864 0.232887 13.5067C0.39417 16.6269 1.69539 19.5793 3.88959 21.8036C6.08378 24.0279 9.01823 25.3692 12.136 25.573C15.2537 25.7767 18.3378 24.8287 20.8028 22.909C20.9488 23.1648 21.1274 23.4005 21.3342 23.6103L28.6451 30.9213L21.3342 38.2322C21.0052 38.561 20.7522 38.9578 20.5929 39.3947C20.4336 39.8316 20.3717 40.298 20.4118 40.7613C18.7805 39.5874 16.8948 38.8156 14.9085 38.509C12.9223 38.2024 10.8916 38.3697 8.98229 38.9971C7.07294 39.6245 5.33894 40.6944 3.9217 42.1194C2.50447 43.5445 1.44414 45.2843 0.827199 47.1971C0.210257 49.1099 0.0541731 51.1414 0.371677 53.1259C0.689181 55.1105 1.47128 56.9919 2.65419 58.6167C3.8371 60.2416 5.38732 61.5638 7.17841 62.4755C8.9695 63.3873 10.9507 63.8627 12.9605 63.8632Z" fill="url(#paint0_linear_678_2520)"/>
<defs>
<linearGradient id="paint0_linear_678_2520" x1="56.8528" y1="-2.48606" x2="29.7691" y2="78.5288" gradientUnits="userSpaceOnUse">
<stop stop-color="white"/>
<stop offset="1" stop-color="#FFDEE0"/>
</linearGradient>
</defs>
</svg>
